<svg xmlns="http://www.w3.org/2000/svg" viewBox="0 0 320 320" role="img" aria-labelledby="title desc">
  <title id="title">QR Code placeholder</title>
  <desc id="desc">Placeholder visual para substituir pelo QR Code real do Pix.</desc>
  <rect width="320" height="320" rx="28" fill="#14110f"/>
  <rect x="20" y="20" width="280" height="280" rx="20" fill="#f6f1e7"/>
  <rect x="44" y="44" width="64" height="64" rx="10" fill="#1a1714"/>
  <rect x="60" y="60" width="32" height="32" rx="6" fill="#e8d08a"/>
  <rect x="212" y="44" width="64" height="64" rx="10" fill="#1a1714"/>
  <rect x="228" y="60" width="32" height="32" rx="6" fill="#e8d08a"/>
  <rect x="44" y="212" width="64" height="64" rx="10" fill="#1a1714"/>
  <rect x="60" y="228" width="32" height="32" rx="6" fill="#e8d08a"/>
  <rect x="140" y="48" width="20" height="20" rx="4" fill="#1a1714"/>
  <rect x="170" y="48" width="20" height="20" rx="4" fill="#1a1714"/>
  <rect x="140" y="78" width="50" height="20" rx="4" fill="#1a1714"/>
  <rect x="136" y="128" width="24" height="24" rx="4" fill="#1a1714"/>
  <rect x="170" y="128" width="24" height="24" rx="4" fill="#1a1714"/>
  <rect x="204" y="128" width="24" height="24" rx="4" fill="#1a1714"/>
  <rect x="136" y="162" width="58" height="24" rx="4" fill="#1a1714"/>
  <rect x="204" y="162" width="24" height="58" rx="4" fill="#1a1714"/>
  <rect x="136" y="196" width="24" height="24" rx="4" fill="#1a1714"/>
  <rect x="170" y="196" width="24" height="58" rx="4" fill="#1a1714"/>
  <rect x="238" y="162" width="24" height="24" rx="4" fill="#1a1714"/>
  <rect x="238" y="220" width="24" height="24" rx="4" fill="#1a1714"/>
  <text x="160" y="296" fill="#c9a84c" font-family="Jost, sans-serif" font-size="18" letter-spacing="2" text-anchor="middle">QR PIX</text>
</svg>